<?xml version="1.0" encoding="UTF-8" standalone="no"?>
<!DOCTYPE svg PUBLIC "-//W3C//DTD SVG 1.1//EN" "http://www.w3.org/Graphics/SVG/1.1/DTD/svg11.dtd">
<!-- Created with Vectornator (http://vectornator.io/) -->
<svg height="100%" stroke-miterlimit="10" style="fill-rule:nonzero;clip-rule:evenodd;stroke-linecap:round;stroke-linejoin:round;" version="1.1" viewBox="0 0 1024 1024" width="100%" xml:space="preserve" xmlns="http://www.w3.org/2000/svg" xmlns:xlink="http://www.w3.org/1999/xlink">
<defs/>
<g id="Layer-1">
<path d="M581.11 839.267L581.11 197.038" fill="none" opacity="1" stroke="#ffffff" stroke-linecap="square" stroke-linejoin="miter" stroke-width="80"/>
<path d="M428.668 197.038L428.668 500.747L428.668 839.267" fill="#ffffff" fill-rule="nonzero" opacity="1" stroke="#ffffff" stroke-linecap="square" stroke-linejoin="miter" stroke-width="80"/>
<g opacity="1">
<g opacity="1">
<path d="M833.344 157C825.851 158.408 818.319 159.589 810.781 160.719C798.688 162.532 786.56 164.092 774.406 165.438C756.849 167.382 739.253 168.77 721.594 169.281C711.348 169.578 701.092 169.72 690.844 169.438C687.194 169.337 683.55 169.067 679.906 168.844C666.512 168.022 653.115 166.395 640.094 163.094C636.198 162.106 632.37 160.874 628.594 159.5C626.689 158.807 624.787 158.169 622.844 157.594C622.39 157.459 621.974 157.181 621.5 157.188C621.006 157.195 620.523 157.446 620.062 157.625C619.585 157.811 619.155 158.07 618.688 158.281C617.138 158.981 615.86 159.773 614.469 160.75C611.246 163.012 607.956 165.212 604.688 167.406C600.32 170.338 595.787 172.938 591.031 175.188C586.209 177.469 581.091 179.265 575.75 179.75C572.803 180.018 569.912 179.828 567 179.344C567.25 195.48 577.568 209.756 588.219 221.031C591.417 224.418 594.74 227.604 598.312 230.594C601.924 233.616 605.575 236.745 609.812 238.844C610.497 239.183 611.174 239.541 611.875 239.844C612.554 240.137 613.207 240.509 613.938 240.625C614.651 240.738 615.372 240.539 616.094 240.5C616.821 240.461 617.554 240.422 618.281 240.375C620.486 240.231 622.604 239.896 624.781 239.531C630.187 238.627 635.603 237.556 640.969 236.438C646.919 235.198 652.784 233.689 658.656 232.125C671.396 228.732 683.942 224.814 696.344 220.344C703.008 217.941 709.684 215.553 716.281 212.969C728.021 208.37 739.602 203.435 751.094 198.25C771.562 189.015 791.8 179.369 811.656 168.875C818.94 165.026 826.214 161.13 833.344 157Z" fill="#ffffff" stroke="none"/>
</g>
<g opacity="1">
<path d="M175.5 157C183.147 161.43 190.962 165.604 198.781 169.719C218.127 179.897 237.828 189.262 257.75 198.25C269.242 203.435 280.854 208.37 292.594 212.969C299.191 215.553 305.867 217.941 312.531 220.344C324.933 224.814 337.448 228.732 350.188 232.125C356.06 233.689 361.924 235.198 367.875 236.438C373.963 237.706 380.082 238.874 386.219 239.875C388.397 240.23 390.546 240.381 392.75 240.5C393.471 240.539 394.193 240.738 394.906 240.625C395.637 240.509 396.321 240.137 397 239.844C397.701 239.541 398.347 239.183 399.031 238.844C399.706 238.51 400.41 238.189 401.062 237.812C403.122 236.624 404.982 235.062 406.844 233.594C408.7 232.13 410.52 230.635 412.312 229.094C416.37 225.605 420.106 221.718 423.656 217.719C433.076 207.107 441.617 194 441.844 179.344C438.931 179.828 436.04 180.018 433.094 179.75C427.211 179.215 421.717 177.07 416.438 174.531C412.162 172.475 408.094 170.049 404.156 167.406C400.409 164.891 396.763 162.239 393 159.75C391.703 158.892 390.231 158.188 388.781 157.625C388.32 157.446 387.869 157.195 387.375 157.188C386.901 157.181 386.454 157.459 386 157.594C385.541 157.73 385.084 157.865 384.625 158C383.143 158.437 381.701 158.972 380.25 159.5C376.114 161.005 371.902 162.301 367.625 163.344C354.943 166.436 341.989 168.045 328.969 168.844C325.325 169.067 321.649 169.337 318 169.438C307.752 169.72 297.496 169.578 287.25 169.281C269.59 168.77 251.994 167.382 234.438 165.438C221.73 164.03 209.047 162.387 196.406 160.469C189.421 159.408 182.445 158.305 175.5 157Z" fill="#ffffff" stroke="none"/>
</g>
</g>
<g opacity="1">
<g opacity="1">
<path d="M614.438 795.656C613.707 795.772 613.054 796.144 612.375 796.438C611.674 796.74 610.996 797.099 610.312 797.438C609.638 797.772 608.934 798.092 608.281 798.469C606.221 799.657 604.362 801.188 602.5 802.656C600.644 804.12 598.824 805.646 597.031 807.188C592.974 810.676 589.238 814.563 585.688 818.562C576.267 829.175 567.727 842.281 567.5 856.938C570.412 856.454 573.303 856.263 576.25 856.531C582.133 857.066 587.626 859.18 592.906 861.719C597.182 863.775 601.25 866.232 605.188 868.875C608.935 871.39 612.612 874.043 616.375 876.531C617.672 877.389 619.112 878.093 620.562 878.656C621.023 878.835 621.506 879.086 622 879.094C622.474 879.101 622.89 878.822 623.344 878.688C623.802 878.552 624.26 878.417 624.719 878.281C626.201 877.844 627.643 877.309 629.094 876.781C633.229 875.276 637.442 873.949 641.719 872.906C654.401 869.814 667.385 868.237 680.406 867.438C684.05 867.214 687.695 866.944 691.344 866.844C701.592 866.561 711.848 866.703 722.094 867C739.753 867.511 757.35 868.868 774.906 870.812C787.614 872.22 800.297 873.894 812.938 875.812C819.923 876.873 826.899 877.976 833.844 879.281C826.197 874.851 818.413 870.677 810.594 866.562C791.248 856.384 771.516 846.988 751.594 838C740.101 832.815 728.521 827.88 716.781 823.281C710.184 820.697 703.508 818.34 696.844 815.938C684.442 811.467 671.896 807.518 659.156 804.125C653.284 802.561 647.419 801.084 641.469 799.844C635.381 798.575 629.262 797.407 623.125 796.406C620.947 796.051 618.798 795.9 616.594 795.781C615.873 795.742 615.151 795.543 614.438 795.656Z" fill="#ffffff" stroke="none"/>
</g>
<g opacity="1">
<path d="M395.406 795.656C394.693 795.543 393.971 795.742 393.25 795.781C392.522 795.821 391.789 795.859 391.062 795.906C388.858 796.05 386.74 796.386 384.562 796.75C379.157 797.655 373.741 798.726 368.375 799.844C362.424 801.084 356.56 802.561 350.688 804.125C337.948 807.518 325.433 811.467 313.031 815.938C306.367 818.34 299.691 820.697 293.094 823.281C281.354 827.88 269.742 832.815 258.25 838C237.781 847.235 217.544 856.912 197.688 867.406C190.404 871.256 183.129 875.151 176 879.281C183.492 877.873 191.024 876.693 198.562 875.562C210.655 873.75 222.784 872.158 234.938 870.812C252.494 868.868 270.09 867.511 287.75 867C297.996 866.703 308.252 866.562 318.5 866.844C322.149 866.944 325.825 867.214 329.469 867.438C342.863 868.26 356.229 869.886 369.25 873.188C373.146 874.175 376.974 875.407 380.75 876.781C382.655 877.474 384.556 878.112 386.5 878.688C386.954 878.822 387.401 879.1 387.875 879.094C388.369 879.087 388.82 878.835 389.281 878.656C389.759 878.471 390.22 878.211 390.688 878C392.237 877.3 393.515 876.508 394.906 875.531C398.129 873.269 401.388 871.069 404.656 868.875C409.024 865.943 413.557 863.344 418.312 861.094C423.134 858.812 428.253 857.017 433.594 856.531C436.54 856.263 439.431 856.453 442.344 856.938C442.094 840.802 431.775 826.525 421.125 815.25C417.926 811.864 414.604 808.646 411.031 805.656C407.42 802.634 403.769 799.536 399.531 797.438C398.847 797.099 398.201 796.74 397.5 796.438C396.821 796.144 396.137 795.772 395.406 795.656Z" fill="#ffffff" stroke="none"/>
</g>
</g>
</g>
</svg>
